<svg xmlns="http://www.w3.org/2000/svg" width="801" height="801" viewBox="0 0 801 801" version="1.1">
	<path d="M 384.288 139.096 C 318.802 144.933, 257.722 172.490, 211.617 217 C 173.127 254.158, 147.177 299.297, 136.018 348.500 C 134.770 354, 133.327 359.425, 132.810 360.555 C 132.293 361.686, 131.991 363.036, 132.139 363.555 C 132.373 364.375, 130.984 378.660, 129.407 391.668 C 129.129 393.961, 128.249 396.378, 127.451 397.041 C 125.570 398.602, 125.594 400.907, 127.500 401.638 C 128.651 402.080, 129.002 403.991, 129.009 409.857 C 129.039 437.067, 135.516 471.775, 145.574 498.630 C 171.518 567.899, 227.766 625.579, 297.691 654.619 C 322.086 664.751, 346.607 671.180, 376 675.150 C 388.484 676.837, 429.460 676.863, 443 675.193 C 497.610 668.458, 548.091 647.320, 590.096 613.599 C 604.126 602.335, 625.562 580.146, 636.561 565.500 C 663.791 529.242, 680.125 490.573, 687.040 446 C 688.106 439.125, 688.984 431.819, 688.989 429.764 C 688.999 426.519, 689.525 425.681, 693 423.381 C 697.102 420.667, 698.096 418.358, 695.578 417.392 C 694.796 417.092, 693.221 417.346, 692.078 417.958 C 690.031 419.054, 690 418.901, 689.991 407.785 C 689.957 362.712, 677.992 317.527, 655.862 278.900 C 652.069 272.280, 649.206 266.475, 649.500 266 C 649.793 265.525, 649.195 264.544, 648.171 263.818 C 647.146 263.093, 642.104 256.909, 636.966 250.076 C 618.813 225.936, 591.935 200.873, 566.412 184.288 C 513.263 149.752, 447.585 133.454, 384.288 139.096 M 389.500 143.660 C 349.636 146.890, 309.937 158.181, 277.019 175.653 C 207.425 212.592, 156.435 278.350, 140.172 352.135 L 138.268 360.770 153.884 363.330 C 177.357 367.177, 207.867 372.933, 266 384.482 C 326.862 396.573, 341.585 399.220, 363.500 402.014 C 447.739 412.756, 495.023 394.315, 589 314.070 C 608.598 297.336, 642 267.020, 642 265.967 C 642 263.658, 622.396 239.403, 611.142 227.787 C 564.168 179.303, 502.170 150.086, 433.500 144.072 C 422.455 143.104, 399.063 142.886, 389.500 143.660 M 483.221 234.250 C 482.152 236.037, 471.507 255.818, 459.564 278.208 C 445.405 304.752, 437.963 319.713, 438.175 321.208 C 438.431 323.016, 439.134 323.500, 441.500 323.500 C 444.429 323.500, 445.020 322.526, 466.500 282.268 C 478.600 259.591, 488.725 241.056, 489 241.079 C 489.275 241.103, 500.687 256.419, 514.360 275.117 C 537.089 306.196, 539.447 309.085, 541.860 308.806 C 544.069 308.550, 544.494 308.010, 544.462 305.500 C 544.432 303.179, 538.701 294.750, 519.135 268.250 C 505.226 249.412, 493.254 234, 492.530 234 C 491.806 234, 490.955 233.325, 490.638 232.500 C 489.577 229.734, 485.319 230.739, 483.221 234.250 M 287.223 252.700 C 286.056 253.690, 273.816 268.225, 260.023 285 C 240.166 309.150, 235.003 316.020, 235.223 318 C 235.429 319.864, 236.167 320.577, 238.121 320.804 C 240.459 321.075, 243.419 317.856, 265.552 290.977 C 289.347 262.079, 290.415 260.941, 291.632 263.173 C 292.330 264.453, 300.477 279.225, 309.737 296 C 325.939 325.351, 326.685 326.500, 329.537 326.500 C 335.310 326.500, 334.122 323.488, 313.763 286.500 C 296.770 255.625, 294.195 251.465, 291.922 251.200 C 290.504 251.035, 288.390 251.710, 287.223 252.700 M 638 277.130 C 634.425 280.449, 622.612 291.083, 611.750 300.759 C 600.888 310.436, 592 318.953, 592 319.686 C 592 320.419, 582.708 340.252, 571.351 363.760 C 559.994 387.267, 547.415 413.359, 543.398 421.743 L 536.095 436.986 541.297 434.362 C 550.070 429.939, 568.718 419.200, 585 409.196 C 607.625 395.295, 656.242 363.959, 658.073 362.099 C 658.938 361.219, 662.241 352.459, 665.413 342.630 L 671.181 324.761 668.960 318.630 C 663.709 304.136, 647.027 270.890, 645.084 271.047 C 644.763 271.073, 641.575 273.810, 638 277.130 M 574 333.215 C 559.088 345.678, 533.301 364.717, 519.070 373.769 C 492.582 390.620, 463.960 402.729, 441.851 406.440 C 439.044 406.911, 438.302 407.451, 438.636 408.776 C 438.932 409.948, 430.375 420.230, 411.906 440.895 L 384.742 471.290 405.621 470.720 C 448.795 469.542, 483.996 461.620, 519.636 445.061 L 528.595 440.898 556.367 383.353 C 571.642 351.702, 583.996 325.687, 583.820 325.541 C 583.644 325.395, 579.225 328.848, 574 333.215 M 670.072 344.260 C 668.231 349.892, 666.487 355.134, 666.195 355.908 C 665.633 357.400, 671.254 354.601, 675.928 351.061 L 678.357 349.222 676.545 342.361 C 675.548 338.587, 674.437 335.167, 674.076 334.760 C 673.715 334.352, 671.913 338.627, 670.072 344.260 M 671 360.016 L 663.500 364.886 649.295 408.655 C 641.482 432.728, 635.209 452.542, 635.354 452.687 C 635.498 452.832, 646.777 446.099, 660.416 437.725 L 685.216 422.500 684.644 402.500 C 684.055 381.902, 680.905 354.863, 679.119 355.073 C 678.779 355.113, 675.125 357.337, 671 360.016 M 136.131 374.818 C 134.899 384.426, 134.687 390, 135.554 390 C 135.859 390, 141.537 385.397, 148.172 379.772 L 160.237 369.543 150.869 367.822 C 136.282 365.142, 137.442 364.591, 136.131 374.818 M 637.500 381.641 C 600.736 405.735, 565.587 427.198, 541.657 440.166 L 531.815 445.500 512.907 484.731 C 502.508 506.309, 494 524.188, 494 524.463 C 494 524.739, 498.163 523.447, 503.250 521.594 C 534.938 510.047, 564.091 495.498, 609.275 468.677 L 628.051 457.533 639.082 423.516 C 645.149 404.807, 651.630 384.887, 653.484 379.250 C 655.338 373.613, 656.775 369.043, 656.677 369.095 C 656.580 369.147, 647.950 374.793, 637.500 381.641 M 150.109 384.592 L 134 398.185 134 408.170 C 134 419.491, 135.840 442.139, 136.847 443.207 C 137.658 444.067, 193.489 452.262, 195.505 451.816 C 196.941 451.499, 258.199 388.865, 257.630 388.297 C 256.815 387.482, 171.202 371, 167.785 371 C 166.923 371, 158.969 377.117, 150.109 384.592 M 233.519 420.863 C 216.717 438.192, 203.315 452.682, 203.735 453.063 C 204.156 453.444, 218.675 455.617, 236 457.892 C 293.118 465.392, 333.102 469.382, 363.057 470.570 L 378.500 471.182 406.237 439.912 C 421.493 422.713, 433.821 408.488, 433.634 408.300 C 433.446 408.113, 427.714 408.475, 420.896 409.106 C 392.367 411.746, 357.411 407.743, 285.783 393.633 L 264.066 389.355 233.519 420.863 M 658.801 444.509 C 645.216 452.892, 632.563 461.381, 630.683 463.375 C 627.601 466.642, 623.965 468.484, 625.500 466 C 626.537 464.323, 625.670 464.758, 613.709 471.917 C 556.690 506.046, 513.313 525.915, 477.217 534.438 C 457.517 539.089, 441.107 541.084, 417.500 541.697 C 370.044 542.930, 324.013 537.136, 200.614 514.396 C 175.376 509.745, 154.535 506.132, 154.300 506.367 C 153.614 507.053, 164.376 528.573, 171.007 539.777 C 184.005 561.740, 207.390 589.129, 227.607 606.068 C 268.145 640.034, 314.484 660.699, 369 669.124 C 389.966 672.365, 429 672.371, 449.907 669.137 C 496.598 661.916, 536.179 646.264, 572.359 620.717 C 602.133 599.693, 630.275 569.592, 648.031 539.777 C 663.209 514.293, 674.521 485.322, 679.890 458.182 C 682.109 446.967, 684.471 430.115, 683.895 429.612 C 683.678 429.423, 672.385 436.127, 658.801 444.509 M 517.194 451.577 C 483.609 467.265, 440.642 475.959, 396.500 475.997 L 380.500 476.010 356.500 502.988 C 343.300 517.826, 332.500 530.311, 332.500 530.733 C 332.500 531.696, 356.200 534.453, 378.308 536.062 C 398.403 537.525, 434.952 536.775, 449.561 534.600 C 461.865 532.768, 478.855 529.292, 483.699 527.615 C 487.173 526.412, 487.774 525.360, 503.214 493.437 C 518.450 461.935, 525.093 447.904, 524.687 448.082 C 524.584 448.127, 521.212 449.700, 517.194 451.577 M 138.022 451.171 C 138.082 457.715, 149.285 498, 151.045 498 C 152.698 498, 191.125 456.990, 189.854 456.581 C 189.109 456.342, 178.375 454.750, 166 453.044 C 153.625 451.339, 142.262 449.695, 140.750 449.392 C 138.376 448.916, 138.003 449.159, 138.022 451.171 M 176.687 479.250 C 158.386 498.198, 156.398 500.578, 158.331 501.220 C 159.524 501.617, 180.075 505.533, 204 509.923 C 290.437 525.783, 326.727 531.514, 327.207 529.380 C 327.368 528.664, 337.738 516.603, 350.250 502.577 C 362.763 488.551, 373 476.891, 373 476.666 C 373 476.441, 367.488 475.954, 360.750 475.583 C 323.176 473.516, 264.041 467.203, 214.195 459.939 C 206.877 458.873, 200.063 458, 199.051 458 C 197.967 458, 188.784 466.726, 176.687 479.250" stroke="none" fill="#000000" fill-rule="evenodd"/>
</svg>